<svg xmlns="http://www.w3.org/2000/svg" width="24" height="19.035" viewBox="0 0 24 19.035">
  <g id="broker-active-icon" transform="translate(-13 -363)">
    <path id="Path_357" data-name="Path 357" d="M13.571,369.143l4.571-5.714,2.571,1.714,2.571,1,3.143-1h2.714l3.286-1.714,4,5L34,370.286l-1.571,3.286s1,2.714-1.286,2.857c0,.429,0,1.714-2,1.571.429-.143.571,1.714-1.571,1.429a1.316,1.316,0,0,1-2.143,1.286c-.143.143-2.286,1.571-3,0a2.1,2.1,0,0,1-1.714-2c-.143,0-2.286-.714-1.714-2.286,0,.143-2.429-.429-.857-2.857.286.143-2.429-2.714-2.429-2.714Z" fill="#f48634"/>
    <path id="Path_356" data-name="Path 356" d="M-104-449.447l4.47-5.534c.263-.325.447-.354.8-.128.732.464,1.458.936,2.2,1.389a3.026,3.026,0,0,0,.718.321c.718.212,1.442.4,2.166.59a.73.73,0,0,0,.362,0c.759-.21,1.514-.435,2.272-.647a1.767,1.767,0,0,1,.459-.066c1-.006,2,0,3-.008a.786.786,0,0,0,.389-.112c.775-.482,1.543-.977,2.314-1.467.353-.224.55-.192.8.135q1.937,2.514,3.872,5.031c.256.333.232.544-.092.823-.686.592-1.375,1.18-2.058,1.776a.88.88,0,0,0-.209.273q-.692,1.433-1.369,2.873a.363.363,0,0,0-.012.272,1.662,1.662,0,0,1-1.4,2.453.372.372,0,0,0-.065.018,1.733,1.733,0,0,1-1.706,1.69,1.718,1.718,0,0,1-.485,1.174,1.688,1.688,0,0,1-1.195.5,1.666,1.666,0,0,1-1.071,1.565,1.677,1.677,0,0,1-1.871-.437,1.739,1.739,0,0,1-1.8.7,1.649,1.649,0,0,1-1.29-1.424c-.152-.008-.306-.006-.458-.025a1.633,1.633,0,0,1-1.442-1.465c-.014-.122-.019-.211-.188-.23a1.627,1.627,0,0,1-1.5-1.72c0-.053,0-.107,0-.167-.129-.033-.251-.056-.367-.1a1.654,1.654,0,0,1-.8-2.537.248.248,0,0,0-.006-.359c-.62-.823-1.225-1.658-1.849-2.478a3.585,3.585,0,0,0-.518-.5c-.6-.523-1.208-1.038-1.81-1.56a3.781,3.781,0,0,1-.268-.284Zm11.694,9.326c.013.009.024.024.038.026a1.666,1.666,0,0,1,1.22,2.307.183.183,0,0,0,.025.162.742.742,0,0,0,.759.251.717.717,0,0,0,.325-1.21c-.346-.371-.713-.723-1.068-1.086a.479.479,0,0,1-.122-.594.471.471,0,0,1,.773-.082c.357.35.705.709,1.056,1.064a.715.715,0,0,0,.724.219.718.718,0,0,0,.31-1.226c-.6-.624-1.218-1.234-1.827-1.85a2.86,2.86,0,0,1-.225-.238.468.468,0,0,1,.027-.619.471.471,0,0,1,.638-.029,2.02,2.02,0,0,1,.169.162q.923.933,1.845,1.866a.735.735,0,0,0,.759.245A.722.722,0,0,0-86.6-442q-1.446-1.469-2.9-2.932c-.06-.061-.152-.12-.165-.192a.792.792,0,0,1-.008-.477.566.566,0,0,1,.414-.225.626.626,0,0,1,.393.206c.979.976,1.946,1.964,2.921,2.943a.729.729,0,0,0,1.081.044.726.726,0,0,0-.058-1.064q-2.707-2.71-5.421-5.414a.56.56,0,0,0-.323-.141c-.56-.051-1.122-.075-1.681-.127a.286.286,0,0,0-.329.173q-.523.954-1.072,1.894a1.649,1.649,0,0,1-1.843.79,1.658,1.658,0,0,1-1.031-2.455c.541-.976,1.1-1.942,1.649-2.912.045-.08.087-.162.14-.261-.4-.112-.789-.213-1.168-.328a.287.287,0,0,0-.354.116c-.9,1.1-1.8,2.2-2.7,3.3l-1.506,1.838,1.814,2.443a1.691,1.691,0,0,1,2.774.979,1.718,1.718,0,0,1,1.4.342,1.691,1.691,0,0,1,.615,1.3A1.7,1.7,0,0,1-92.308-440.121Zm7.588-4.593c.083-.159.116-.219.146-.281.364-.76.722-1.522,1.094-2.278a.3.3,0,0,0-.051-.373q-1.888-2.39-3.766-4.787a.37.37,0,0,0-.332-.159c-.93.006-1.859,0-2.789.006a1.738,1.738,0,0,0-.46.063c-.982.279-1.961.571-2.945.846a.54.54,0,0,0-.361.292c-.23.425-.475.843-.713,1.264-.3.536-.613,1.07-.908,1.611a.713.713,0,0,0,.357,1.048.721.721,0,0,0,.911-.365c.418-.732.835-1.464,1.245-2.2a.548.548,0,0,1,.571-.316q1.18.09,2.36.162a.81.81,0,0,1,.551.264q2.455,2.467,4.917,4.926A1.614,1.614,0,0,1-84.72-444.714Zm-14.267-9.446-3.892,4.822,1.658,1.424,4.134-5.037Zm17.866,4.529-3.482-4.523-1.9,1.211,3.725,4.738Zm-15.543,9.293a.874.874,0,0,0,.336-.136c.437-.411.871-.829,1.273-1.275a.692.692,0,0,0-.083-.955.7.7,0,0,0-.941-.018q-.624.584-1.209,1.209a.656.656,0,0,0-.092.767A.731.731,0,0,0-96.662-440.338Zm.846.952a.817.817,0,0,0,.469.675.666.666,0,0,0,.781-.127c.384-.367.761-.741,1.127-1.125a.716.716,0,0,0,0-1.031.714.714,0,0,0-1.028.034c-.363.354-.729.707-1.072,1.081A2.341,2.341,0,0,0-95.817-439.386Zm3.96.806a.642.642,0,0,0-.371-.511.636.636,0,0,0-.746.051,6.224,6.224,0,0,0-.743.739.651.651,0,0,0-.049.768.678.678,0,0,0,.656.367A1.83,1.83,0,0,0-91.857-438.58Zm-5.78-5.71a1.479,1.479,0,0,0-.418.176,6.807,6.807,0,0,0-.728.722.7.7,0,0,0,.05.92.687.687,0,0,0,.913.1,5.555,5.555,0,0,0,.771-.775.646.646,0,0,0,.036-.749A.775.775,0,0,0-97.637-444.29Z" transform="translate(117.002 818.256)" fill="#fff" fill-rule="evenodd"/>
  </g>
</svg>
