<svg xmlns="http://www.w3.org/2000/svg" width="19.611" height="19.606" viewBox="0 0 19.611 19.606">
  <path id="cross-icon" d="M642.727-58.913v-.767c.015-.087.032-.174.044-.262.058-.442.083-.89.176-1.324a9.678,9.678,0,0,1,4.077-6.117,9.415,9.415,0,0,1,4.432-1.645l.739-.082h.69c.094.015.187.032.282.043.373.043.751.061,1.119.131a9.552,9.552,0,0,1,5.637,3.222,9.534,9.534,0,0,1,2.212,8.366,9.358,9.358,0,0,1-3.173,5.434,9.569,9.569,0,0,1-7.651,2.334A9.308,9.308,0,0,1,646.5-51.6a9.645,9.645,0,0,1-3.7-6.637Q642.768-58.573,642.727-58.913Zm10.979-.4c.147-.136.281-.254.407-.379q1.011-1.008,2.019-2.019a.83.83,0,0,0-.038-1.277.824.824,0,0,0-1.141.1q-1.134,1.129-2.264,2.262c-.048.048-.1.092-.172.16a2.3,2.3,0,0,0-.145-.18q-1.116-1.119-2.235-2.237a.834.834,0,0,0-.74-.277.807.807,0,0,0-.684.569.808.808,0,0,0,.229.875q1.13,1.133,2.262,2.264c.049.049.094.1.151.162l-1.077,1.076c-.452.452-.906.9-1.354,1.356a.79.79,0,0,0-.214.844.8.8,0,0,0,.638.569.834.834,0,0,0,.794-.272l2.25-2.249c.048-.048.1-.093.162-.152.273.278.531.544.792.806q.811.815,1.627,1.625a.8.8,0,0,0,.878.211.8.8,0,0,0,.555-.694.85.85,0,0,0-.292-.736C655.321-57.695,654.531-58.485,653.706-59.31Z" transform="translate(-642.727 69.11)" fill="#e93c4d" fill-rule="evenodd"/>
</svg>
