<svg xmlns="http://www.w3.org/2000/svg" width="24.2" height="24.2" viewBox="0 0 24.2 24.2">
  <g id="driver-active-icon" transform="translate(-12.9 -283.9)">
    <path id="Path_353" data-name="Path 353" d="M15.143,294.857c-.143.714.714-8.429,9.857-8.714.429.143,9.571,1,9.429,8.714C34.286,295,25.714,287.286,15.143,294.857Z" fill="#f48634"/>
    <path id="Path_354" data-name="Path 354" d="M15.625,299c.245-.125,7.25-1.875,7.875,6.625C23.375,305.875,17.5,305,15.625,299Z" fill="#f48634"/>
    <path id="Path_355" data-name="Path 355" d="M26.5,305.662c-.25.463.5-8.537,7.875-6.412C34.25,299.25,32.625,304.95,26.5,305.662Z" fill="#f48634"/>
    <g id="driver-active-icon-2" data-name="driver-active-icon" transform="translate(484.363 521.472)">
      <path id="Path_19" data-name="Path 19" d="M-471.363-224.769v-1.406c.019-.169.039-.337.057-.506a11.855,11.855,0,0,1,3.014-6.791,11.77,11.77,0,0,1,6.862-3.813c.452-.08.909-.125,1.364-.187h1.406a1.282,1.282,0,0,0,.181.039,11.42,11.42,0,0,1,5.235,1.651,11.844,11.844,0,0,1,5.694,8.245c.084.45.126.907.187,1.361v1.406c-.019.169-.039.337-.057.506a11.856,11.856,0,0,1-3.014,6.791,11.771,11.771,0,0,1-6.862,3.813c-.451.08-.909.125-1.364.187h-1.406a1.284,1.284,0,0,0-.181-.039,11.42,11.42,0,0,1-5.235-1.651,11.845,11.845,0,0,1-5.694-8.246C-471.26-223.857-471.3-224.315-471.363-224.769Zm23.295-.691a11.316,11.316,0,0,0-11.271-11.307,11.317,11.317,0,0,0-11.318,11.283,11.317,11.317,0,0,0,11.271,11.307A11.317,11.317,0,0,0-448.068-225.46Z" transform="translate(0)" fill="#fff" stroke="#fff" stroke-miterlimit="10" stroke-width="0.2" fill-rule="evenodd"/>
      <path id="Path_20" data-name="Path 20" d="M-434.31-210.7a9.988,9.988,0,0,1,9.914,7.62,17.1,17.1,0,0,1,.211,1.7.344.344,0,0,1-.222.4.4.4,0,0,1-.458-.143,11.845,11.845,0,0,0-7.33-3.672,13.974,13.974,0,0,0-8.555,1.371,10.22,10.22,0,0,0-2.868,2.159c-.057.062-.113.125-.173.183a.336.336,0,0,1-.424.089.469.469,0,0,1-.2-.338,9.561,9.561,0,0,1,.147-1.486,9.57,9.57,0,0,1,6.051-7.147A10.363,10.363,0,0,1-434.31-210.7Zm-9.316,8.445a13.672,13.672,0,0,1,9.309-3.352A13.662,13.662,0,0,1-425-202.268c-.294-3.433-3.616-7.576-9.019-7.745A9.225,9.225,0,0,0-443.626-202.252Z" transform="translate(-25.058 -24.899)" fill="#fff" stroke="#fff" stroke-miterlimit="10" stroke-width="0.2" fill-rule="evenodd"/>
      <path id="Path_21" data-name="Path 21" d="M-438.043-48.448a6.718,6.718,0,0,1,6.246,4.48,6.81,6.81,0,0,1,.327,2.836.348.348,0,0,1-.454.352,9.455,9.455,0,0,1-7.563-5.619,11.066,11.066,0,0,1-.464-1.3.342.342,0,0,1,.3-.5C-439.115-48.294-438.578-48.367-438.043-48.448Zm-1.169.846a8.74,8.74,0,0,0,7.072,6.078A5.889,5.889,0,0,0-439.212-47.6Z" transform="translate(-29.181 -174.645)" fill="#fff" stroke="#fff" stroke-miterlimit="10" stroke-width="0.2" fill-rule="evenodd"/>
      <path id="Path_22" data-name="Path 22" d="M-291.654-48.409c.52.08,1.042.15,1.56.242.32.057.413.226.317.531a9.455,9.455,0,0,1-7.149,6.741c-.295.074-.6.11-.9.154a.339.339,0,0,1-.425-.339,6.5,6.5,0,0,1,1.608-5.033A6.732,6.732,0,0,1-291.654-48.409Zm-5.925,6.928a8.751,8.751,0,0,0,7.062-6.079A5.874,5.874,0,0,0-297.579-41.481Z" transform="translate(-159.821 -174.681)" fill="#fff" stroke="#fff" stroke-miterlimit="10" stroke-width="0.2" fill-rule="evenodd"/>
      <path id="Path_23" data-name="Path 23" d="M-346.634-109.854a2.914,2.914,0,0,1-2.9-2.89,2.914,2.914,0,0,1,2.89-2.9,2.914,2.914,0,0,1,2.9,2.89A2.914,2.914,0,0,1-346.634-109.854Zm-.006-.672a2.259,2.259,0,0,0,2.224-2.215,2.258,2.258,0,0,0-2.226-2.235,2.258,2.258,0,0,0-2.224,2.215A2.258,2.258,0,0,0-346.64-110.526Z" transform="translate(-112.722 -112.721)" fill="#fff" stroke="#fff" stroke-miterlimit="10" stroke-width="0.2" fill-rule="evenodd"/>
    </g>
  </g>
</svg>
