<?xml version="1.0" encoding="utf-8"?>
<!-- Generator: Adobe Illustrator 16.0.0, SVG Export Plug-In . SVG Version: 6.00 Build 0)  -->
<!DOCTYPE svg PUBLIC "-//W3C//DTD SVG 1.1//EN" "http://www.w3.org/Graphics/SVG/1.1/DTD/svg11.dtd">
<svg version="1.1" id="Layer_1" xmlns="http://www.w3.org/2000/svg" xmlns:xlink="http://www.w3.org/1999/xlink" x="0px" y="0px"
	 width="24px" height="16.55px" viewBox="0 0 24 16.55" enable-background="new 0 0 24 16.55" xml:space="preserve">
<path fill-rule="evenodd" clip-rule="evenodd" fill="#F48634" d="M0.466,8.619C0.641,8.041,0.953,7.85,1.394,7.851
	c7.07,0.012,14.14,0.012,21.209,0c0.442-0.001,0.753,0.192,0.93,0.768c0,0.169,0,0.337,0,0.507c-0.177,0.575-0.487,0.769-0.93,0.768
	c-7.068-0.012-14.139-0.012-21.208,0C0.953,9.895,0.643,9.701,0.466,9.125C0.466,8.956,0.466,8.788,0.466,8.619z"/>
<path fill-rule="evenodd" clip-rule="evenodd" fill="#F48634" d="M0.466,2.183c0.178-0.574,0.491-0.766,0.931-0.765
	c7.061,0.011,14.121,0.012,21.183,0c0.446,0,0.771,0.177,0.954,0.766c0,0.169,0,0.338,0,0.507c-0.174,0.579-0.482,0.771-0.927,0.771
	c-7.071-0.013-14.142-0.013-21.213,0c-0.445,0-0.753-0.193-0.927-0.771C0.466,2.521,0.466,2.352,0.466,2.183z"/>
<path fill-rule="evenodd" clip-rule="evenodd" fill="#F48634" d="M0.466,14.679c0.172-0.58,0.482-0.772,0.926-0.771
	c3.514,0.017,7.027,0.008,10.542,0.011c0.559,0,0.922,0.656,0.742,1.344c-0.105,0.405-0.322,0.624-0.624,0.675
	c-0.081,0.014-0.166,0.006-0.248,0.006c-3.468,0-6.938-0.006-10.406,0.009c-0.441,0.002-0.753-0.195-0.933-0.766
	C0.466,15.017,0.466,14.849,0.466,14.679z"/>
</svg>
