<svg xmlns="http://www.w3.org/2000/svg" width="24" height="23.64" viewBox="0 0 24 23.64">
  <g id="owner-icon" transform="translate(-124.649 -250.311)">
    <path id="Path_17" data-name="Path 17" d="M129.256,439.075a5.518,5.518,0,0,1-.374.536,1.5,1.5,0,0,1-1.178.491c-.482,0-.965.007-1.447,0a1.52,1.52,0,0,1-1.607-1.63q0-3.283,0-6.565a1.518,1.518,0,0,1,1.633-1.626c.4,0,.793,0,1.189,0a1.6,1.6,0,0,1,1.752,1c.591-.142,1.168-.318,1.758-.415a7.168,7.168,0,0,1,6.031,1.624,4.19,4.19,0,0,0,2.5.967c.7.049,1.394.057,2.09.11a2.692,2.692,0,0,1,.8.181,1.073,1.073,0,0,1,.581,1.422,1.9,1.9,0,0,1-.762.982,5.611,5.611,0,0,1-2.865.92,6.48,6.48,0,0,1-2.4-.237,6.559,6.559,0,0,0-.827-.143l-.031.089a3.582,3.582,0,0,0,.421.194,20.054,20.054,0,0,0,2,.6,3.012,3.012,0,0,0,1.2-.059c2.059-.446,4.11-.929,6.168-1.381a5.187,5.187,0,0,1,1.252-.134,1.6,1.6,0,0,1,1.507,1.546,1.2,1.2,0,0,1-.521.969,6.746,6.746,0,0,1-1.3.729,32.557,32.557,0,0,1-7.418,2.056,12.257,12.257,0,0,1-4.8-.046,16.652,16.652,0,0,1-2.269-.837c-.97-.4-1.924-.838-2.886-1.258C129.387,439.123,129.315,439.1,129.256,439.075Zm.046-3.885c0,.818.012,1.637-.007,2.455a.409.409,0,0,0,.3.449c.88.371,1.749.767,2.627,1.141a22.262,22.262,0,0,0,2.268.922,10.618,10.618,0,0,0,4.51.152,31.09,31.09,0,0,0,7.116-1.892,8.351,8.351,0,0,0,1.182-.568c.139-.081.32-.359.281-.421a1.594,1.594,0,0,0-.495-.4.331.331,0,0,0-.2-.006c-.289.042-.58.074-.865.138-2.065.46-4.124.944-6.194,1.379a4.083,4.083,0,0,1-1.51.046,11.733,11.733,0,0,1-2-.589,3.819,3.819,0,0,1-1.064-.605.916.916,0,0,1-.3-1.031.964.964,0,0,1,.816-.629,2.886,2.886,0,0,1,1.4.093,5.931,5.931,0,0,0,2.862.114,3.4,3.4,0,0,0,1.729-.751,1.681,1.681,0,0,0,.252-.457,2.186,2.186,0,0,0-.457-.13c-.7-.046-1.412-.057-2.116-.111a5.056,5.056,0,0,1-2.99-1.126,6.533,6.533,0,0,0-6.952-1.034.272.272,0,0,0-.2.3C129.307,433.483,129.3,434.336,129.3,435.189Zm-3.619,0q0,1.641,0,3.281c0,.422.17.6.595.6.474.005.947.007,1.421,0a.507.507,0,0,0,.568-.581q0-3.294,0-6.588c0-.4-.181-.578-.589-.582-.448,0-.9,0-1.344,0-.5,0-.651.152-.652.643Q125.683,433.571,125.684,435.186Z" transform="translate(0 -167.559)" fill="#fff" fill-rule="evenodd"/>
    <path id="Path_18" data-name="Path 18" d="M165.691,258.329c.273-.345.55-.684.814-1.034a.6.6,0,0,1,.722-.239c.369.115.749.2,1.116.321a.311.311,0,0,0,.409-.138c.235-.319.492-.621.731-.937a.565.565,0,0,1,.663-.213c.4.112.8.22,1.191.34a.252.252,0,0,0,.325-.1c.207-.285.444-.55.65-.836a1.153,1.153,0,0,1,.632-.458.352.352,0,0,0,.206-.235,5.172,5.172,0,0,1,10.234-.13,5.038,5.038,0,0,1-1.014,3.963.369.369,0,0,0-.063.414,4.428,4.428,0,0,1,.275,2.555,2.325,2.325,0,0,1-3.7,1.531,3.718,3.718,0,0,1-1.523-2.26.489.489,0,0,0-.409-.406,4.886,4.886,0,0,1-2.339-1.353.38.38,0,0,0-.461-.116q-4.67,1.534-9.347,3.043a1.113,1.113,0,0,1-.574.014c-.535-.129-1.062-.289-1.59-.443a.515.515,0,0,1-.391-.751c.256-.767.522-1.53.778-2.3a.731.731,0,0,1,.435-.435,1.848,1.848,0,0,1,2.075.133A.8.8,0,0,0,165.691,258.329Zm-2.316,2.414c.289.083.547.148.8.233a.942.942,0,0,0,.626-.012q4.745-1.554,9.494-3.1a.569.569,0,0,1,.784.232,4.137,4.137,0,0,0,4.553,1.284,3.709,3.709,0,0,0,1.3-.743,2.943,2.943,0,0,0-2.521-1.1,2.064,2.064,0,1,1,1.9-1.73,6.971,6.971,0,0,1-.317.933,4.045,4.045,0,0,1,1.655,1.148,4.178,4.178,0,0,0,.729-2.975,4.138,4.138,0,0,0-8.225.279c-.03.5-.085.581-.568.726a1.1,1.1,0,0,0-.638.437c-.23.332-.5.635-.745.959a.586.586,0,0,1-.7.228c-.362-.109-.731-.2-1.092-.311a.337.337,0,0,0-.45.137c-.225.325-.485.626-.731.937a.543.543,0,0,1-.638.208c-.354-.108-.72-.178-1.066-.306a.419.419,0,0,0-.573.2c-.2.3-.44.574-.668.855a.533.533,0,0,1-.753.159c-.3-.149-.6-.306-.9-.454a.64.64,0,0,0-.715.218C163.729,259.69,163.559,260.2,163.375,260.744Zm14.971-.093c.1.241.165.443.26.632a2.132,2.132,0,0,0,1.241,1.171,1.2,1.2,0,0,0,1.468-.426,2.908,2.908,0,0,0,.1-2.431A5.324,5.324,0,0,1,178.346,260.651Zm-1.1-5.161a1.033,1.033,0,0,0,1.047,1.021A1.111,1.111,0,0,0,179.3,255.4a1.019,1.019,0,0,0-1.03-.951A1.03,1.03,0,0,0,177.245,255.49Z" transform="translate(-34.959 0)" fill="#fff" fill-rule="evenodd"/>
  </g>
</svg>
