<?xml version="1.0" encoding="utf-8"?>
<!-- Generator: Adobe Illustrator 16.0.0, SVG Export Plug-In . SVG Version: 6.00 Build 0)  -->
<!DOCTYPE svg PUBLIC "-//W3C//DTD SVG 1.1//EN" "http://www.w3.org/Graphics/SVG/1.1/DTD/svg11.dtd">
<svg version="1.1" id="Layer_1" xmlns="http://www.w3.org/2000/svg" xmlns:xlink="http://www.w3.org/1999/xlink" x="0px" y="0px"
	 width="19.611px" height="19.605px" viewBox="0 0 19.611 19.605" enable-background="new 0 0 19.611 19.605" xml:space="preserve">
<path fill-rule="evenodd" clip-rule="evenodd" fill="#4BAE4F" d="M9.91,19.553c-0.076,0-0.154,0-0.23,0
	c-0.092-0.015-0.184-0.037-0.276-0.048c-0.503-0.057-1.015-0.067-1.507-0.173c-2.968-0.639-5.2-2.293-6.671-4.948
	c-0.72-1.302-1.099-2.707-1.144-4.198C0.079,10.093,0.052,10,0.035,9.908c0-0.076,0-0.154,0-0.23
	c0.017-0.111,0.035-0.222,0.05-0.334c0.085-0.614,0.119-1.24,0.261-1.839c1.001-4.209,4.771-7.3,9.078-7.426
	C9.51,0.077,9.595,0.049,9.68,0.032c0.076,0,0.154,0,0.23,0c0.105,0.017,0.209,0.039,0.315,0.049
	c0.388,0.041,0.784,0.052,1.169,0.12c2.784,0.491,4.963,1.924,6.533,4.267c0.997,1.494,1.523,3.151,1.582,4.952
	c0.003,0.087,0.031,0.173,0.046,0.258c0,0.076,0,0.154,0,0.23c-0.015,0.098-0.039,0.195-0.048,0.296
	c-0.033,0.347-0.039,0.696-0.092,1.04c-0.237,1.544-0.794,2.966-1.728,4.22c-1.864,2.505-4.351,3.875-7.483,4.042
	C10.106,19.51,10.009,19.538,9.91,19.553z M8.352,11.752c-0.056-0.063-0.095-0.115-0.14-0.158c-0.746-0.745-1.492-1.492-2.236-2.238
	c-0.19-0.19-0.418-0.237-0.667-0.167C5.061,9.261,4.917,9.444,4.874,9.696c-0.041,0.238,0.058,0.429,0.225,0.597
	c0.904,0.9,1.817,1.794,2.703,2.712c0.341,0.354,0.782,0.349,1.124,0.002c1.827-1.846,3.669-3.679,5.508-5.517
	c0.052-0.054,0.109-0.106,0.156-0.167c0.267-0.348,0.115-0.869-0.305-0.994c-0.276-0.083-0.512,0.003-0.721,0.215
	c-1.682,1.688-3.368,3.371-5.052,5.054C8.469,11.646,8.422,11.687,8.352,11.752z"/>
<path fill-rule="evenodd" clip-rule="evenodd" fill="#FFFFFF" d="M8.507,11.567c0.063-0.061,0.104-0.098,0.145-0.139
	c1.516-1.515,3.033-3.029,4.544-4.548c0.189-0.19,0.4-0.268,0.65-0.193C14.223,6.8,14.36,7.269,14.12,7.581
	c-0.043,0.054-0.094,0.102-0.141,0.15c-1.654,1.653-3.313,3.302-4.956,4.964c-0.308,0.311-0.704,0.314-1.011-0.002
	c-0.798-0.826-1.619-1.631-2.433-2.441c-0.151-0.15-0.24-0.322-0.203-0.537C5.417,9.489,5.545,9.325,5.769,9.26
	C5.992,9.196,6.198,9.239,6.368,9.41c0.67,0.672,1.342,1.342,2.013,2.014C8.421,11.463,8.456,11.508,8.507,11.567z"/>
</svg>
