<svg xmlns="http://www.w3.org/2000/svg" width="19.836" height="13.152" viewBox="0 0 19.836 13.152">
  <g id="single-view-icon" transform="translate(0 0)">
    <path id="Path_32" data-name="Path 32" d="M-472.48-158.385a10.95,10.95,0,0,1,6.836,2.627,13.662,13.662,0,0,1,2.414,2.568,2.208,2.208,0,0,1,0,2.749,12.467,12.467,0,0,1-5.958,4.587,10.323,10.323,0,0,1-9.059-1,13.024,13.024,0,0,1-3.9-3.652,2.17,2.17,0,0,1-.039-2.561,12.512,12.512,0,0,1,6.44-4.845A10.59,10.59,0,0,1-472.48-158.385Zm.214,1.463a9.816,9.816,0,0,0-3.659.6,11.277,11.277,0,0,0-5.031,4.035.755.755,0,0,0,.023.97,11.873,11.873,0,0,0,2.659,2.7,9.053,9.053,0,0,0,9.036,1.224,10.974,10.974,0,0,0,4.877-3.981.749.749,0,0,0-.035-.951,12.7,12.7,0,0,0-1.929-2.121A9.377,9.377,0,0,0-472.266-156.922Z" transform="translate(482.585 158.385)" fill="#efefef" fill-rule="evenodd"/>
    <path id="Path_33" data-name="Path 33" d="M-378.776-107.622a3.274,3.274,0,0,1,2.072-2.943,3.626,3.626,0,0,1,3.759.406,3.591,3.591,0,0,1,1.386,3.469,3.453,3.453,0,0,1-4.058,3.092C-377.8-103.812-378.805-105.6-378.776-107.622Zm3.6,2.588a2.1,2.1,0,0,0,2.2-2.172,2.106,2.106,0,0,0-2.183-2.207,2.105,2.105,0,0,0-2.2,2.172A2.107,2.107,0,0,0-375.178-105.034Z" transform="translate(385.092 113.795)" fill="#efefef" fill-rule="evenodd"/>
  </g>
</svg>
