<svg xmlns="http://www.w3.org/2000/svg" width="24.062" height="16.82" viewBox="0 0 24.062 16.82">
  <g id="vehicles-active-icon" transform="translate(-14.938 -91.59)">
    <path id="Path_349" data-name="Path 349" d="M15,100.833H30V94.667s.833-3-2.833-3h-10S14.5,91.333,15,95.5,15,100.833,15,100.833Z" fill="#f48634"/>
    <g id="delivery-truck" transform="translate(15 24.586)">
      <g id="Group_5" data-name="Group 5" transform="translate(0 67.004)">
        <path id="Path_14" data-name="Path 14" d="M23.186,74.5l-1.634-.707-1.388-2.7A2.185,2.185,0,0,0,18.2,69.9h-2.39v-.675A2.2,2.2,0,0,0,13.61,67H2.187A2.2,2.2,0,0,0,0,69.222V79.564A1.347,1.347,0,0,0,1.329,80.93h.305c0,.054-.005.075-.005.107a2.776,2.776,0,1,0,5.551.021v-.027a.833.833,0,0,0-.005-.107h9.232v.107a2.776,2.776,0,1,0,5.551.021v-.134h.691A1.351,1.351,0,0,0,24,79.569V75.743A1.344,1.344,0,0,0,23.186,74.5ZM4.41,82.757a1.7,1.7,0,1,1,1.7-1.7A1.7,1.7,0,0,1,4.41,82.757Zm10.325-2.888H6.923a2.772,2.772,0,0,0-5.026,0H1.351a.278.278,0,0,1-.279-.295V76.815H14.736Zm0-10.641v6.516H1.072V69.228a1.128,1.128,0,0,1,1.115-1.147H13.61a1.135,1.135,0,0,1,1.125,1.141Zm1.072,1.747H18.2a1.131,1.131,0,0,1,1.018.605l1.072,2.074H15.807Zm3.381,11.783a1.7,1.7,0,1,1,1.7-1.7A1.7,1.7,0,0,1,19.188,82.757Zm3.745-3.183a.278.278,0,0,1-.279.295H21.7a2.773,2.773,0,0,0-5.026,0h-.868V74.725h5.251l1.7.75a.315.315,0,0,1,.171.289Z" transform="translate(0 -67.004)" fill="#fff"/>
      </g>
    </g>
  </g>
</svg>
