<svg xmlns="http://www.w3.org/2000/svg" width="36" height="36" viewBox="0 0 36 36">
  <g id="view-icon" transform="translate(-1196 -7)">
    <rect id="Rectangle_29" data-name="Rectangle 29" width="36" height="36" rx="9" transform="translate(1196 7)" fill="rgba(2,149,168,0.17)"/>
    <g id="Group_211" data-name="Group 211" transform="translate(1684.635 175.7)">
      <path id="Path_32" data-name="Path 32" d="M-470.384-158.385a13.221,13.221,0,0,1,8.254,3.172,16.492,16.492,0,0,1,2.915,3.1,2.666,2.666,0,0,1,0,3.319,15.052,15.052,0,0,1-7.194,5.539,12.463,12.463,0,0,1-10.938-1.2,15.725,15.725,0,0,1-4.71-4.409,2.62,2.62,0,0,1-.047-3.092,15.107,15.107,0,0,1,7.776-5.85A12.785,12.785,0,0,1-470.384-158.385Zm.258,1.766a11.851,11.851,0,0,0-4.418.73,13.616,13.616,0,0,0-6.075,4.872.911.911,0,0,0,.028,1.172,14.335,14.335,0,0,0,3.211,3.265A10.931,10.931,0,0,0-466.47-145.1a13.251,13.251,0,0,0,5.889-4.806.9.9,0,0,0-.042-1.148,15.334,15.334,0,0,0-2.329-2.561A11.321,11.321,0,0,0-470.126-156.619Z" transform="translate(0)" fill="#0295a8" fill-rule="evenodd"/>
      <path id="Path_33" data-name="Path 33" d="M-378.776-106.941a3.953,3.953,0,0,1,2.5-3.554,4.378,4.378,0,0,1,4.539.491,4.335,4.335,0,0,1,1.673,4.189,4.17,4.17,0,0,1-4.9,3.733C-377.594-102.34-378.811-104.5-378.776-106.941Zm4.344,3.125a2.541,2.541,0,0,0,2.65-2.623,2.543,2.543,0,0,0-2.636-2.664,2.542,2.542,0,0,0-2.651,2.623A2.544,2.544,0,0,0-374.431-103.816Z" transform="translate(-96.183 -43.991)" fill="#0295a8" fill-rule="evenodd"/>
    </g>
  </g>
</svg>
